HIERARCHY
ROOT hip
{
  OFFSET 0 0 0
  CHANNELS 6 Xposition Yposition Zposition Zrotation Yrotation Xrotation
  JOINT abdomen
  {
    OFFSET 0 20.6881 -0.73152
    CHANNELS 3 Zrotation Xrotation Yrotation
    JOINT chest
    {
      OFFSET 0 11.7043 -0.48768
      CHANNELS 3 Zrotation Xrotation Yrotation
      JOINT neck
      {
        OFFSET 0 22.1894 -2.19456
        CHANNELS 3 Zrotation Xrotation Yrotation
        JOINT head
        {
          OFFSET -0.24384 7.07133 1.2192
          CHANNELS 3 Zrotation Xrotation Yrotation
          JOINT leftEye
          {
            OFFSET 4.14528 8.04674 8.04672
            CHANNELS 3 Zrotation Xrotation Yrotation
            End Site
            {
              OFFSET 1 0 0
            }
          }
          JOINT rightEye
          {
            OFFSET -3.6576 8.04674 8.04672
            CHANNELS 3 Zrotation Xrotation Yrotation
            End Site
            {
              OFFSET 1 0 0
            }
          }
        }
      }
      JOINT rCollar
      {
        OFFSET -2.68224 19.2634 -4.8768
        CHANNELS 3 Zrotation Xrotation Yrotation
        JOINT rShldr
        {
          OFFSET -8.77824 -1.95073 1.46304
          CHANNELS 3 Zrotation Xrotation Yrotation
          JOINT rForeArm
          {
            OFFSET -28.1742 -1.7115 0.48768
            CHANNELS 3 Zrotation Xrotation Yrotation
            JOINT rHand
            {
              OFFSET -22.5879 0.773209 7.07136
              CHANNELS 3 Zrotation Xrotation Yrotation
              JOINT rThumb1
              {
                OFFSET -1.2192 -0.487915 3.41376
                CHANNELS 3 Zrotation Xrotation Yrotation
                JOINT rThumb2
                {
                  OFFSET -3.37035 -0.52449 3.41376
                  CHANNELS 3 Zrotation Xrotation Yrotation
                  End Site
                  {
                    OFFSET -1.78271 -1.18214 1.43049
                  }
                }
              }
              JOINT rIndex1
              {
                OFFSET -7.75947 0.938293 5.60832
                CHANNELS 3 Zrotation Xrotation Yrotation
                JOINT rIndex2
                {
                  OFFSET -2.54057 -0.884171 1.56538
                  CHANNELS 3 Zrotation Xrotation Yrotation
                  End Site
                  {
                    OFFSET -1.62519 -0.234802 1.16502
                  }
                }
              }
              JOINT rMid1
              {
                OFFSET -8.24714 1.18213 3.41376
                CHANNELS 3 Zrotation Xrotation Yrotation
                JOINT rMid2
                {
                  OFFSET -3.10165 -0.590103 1.0647
                  CHANNELS 3 Zrotation Xrotation Yrotation
                  End Site
                  {
                    OFFSET -2.48547 -0.328903 0.83742
                  }
                }
              }
              JOINT rRing1
              {
                OFFSET -8.82822 0.546677 1.51678
                CHANNELS 3 Zrotation Xrotation Yrotation
                JOINT rRing2
                {
                  OFFSET -2.60934 -0.819778 -0.0198488
                  CHANNELS 3 Zrotation Xrotation Yrotation
                  End Site
                  {
                    OFFSET -2.33842 -0.294052 0.168128
                  }
                }
              }
              JOINT rPinky1
              {
                OFFSET -8.27202 -0.0477905 -0.4584
                CHANNELS 3 Zrotation Xrotation Yrotation
                JOINT rPinky2
                {
                  OFFSET -1.82734 -0.647385 -0.700984
                  CHANNELS 3 Zrotation Xrotation Yrotation
                  End Site
                  {
                    OFFSET -1.69225 -0.51767 -0.607171
                  }
                }
              }
            }
          }
        }
      }
      JOINT lCollar
      {
        OFFSET 2.68224 19.2634 -4.8768
        CHANNELS 3 Zrotation Xrotation Yrotation
        JOINT lShldr
        {
          OFFSET 8.77824 -1.95073 1.46304
          CHANNELS 3 Zrotation Xrotation Yrotation
          JOINT lForeArm
          {
            OFFSET 28.1742 -1.7115 0.48768
            CHANNELS 3 Zrotation Xrotation Yrotation
            JOINT lHand
            {
              OFFSET 22.5879 0.773209 7.07136
              CHANNELS 3 Zrotation Xrotation Yrotation
              JOINT lThumb1
              {
                OFFSET 1.2192 -0.487915 3.41376
                CHANNELS 3 Zrotation Xrotation Yrotation
                JOINT lThumb2
                {
                  OFFSET 3.37035 -0.52449 3.41376
                  CHANNELS 3 Zrotation Xrotation Yrotation
                  End Site
                  {
                    OFFSET 1.78271 -1.18214 1.43049
                  }
                }
              }
              JOINT lIndex1
              {
                OFFSET 7.75947 0.938293 5.60832
                CHANNELS 3 Zrotation Xrotation Yrotation
                JOINT lIndex2
                {
                  OFFSET 2.54057 -0.884171 1.56538
                  CHANNELS 3 Zrotation Xrotation Yrotation
                  End Site
                  {
                    OFFSET 1.62519 -0.234802 1.16502
                  }
                }
              }
              JOINT lMid1
              {
                OFFSET 8.24714 1.18213 3.41376
                CHANNELS 3 Zrotation Xrotation Yrotation
                JOINT lMid2
                {
                  OFFSET 3.10165 -0.590103 1.0647
                  CHANNELS 3 Zrotation Xrotation Yrotation
                  End Site
                  {
                    OFFSET 2.48547 -0.328903 0.83742
                  }
                }
              }
              JOINT lRing1
              {
                OFFSET 8.82822 0.546677 1.51678
                CHANNELS 3 Zrotation Xrotation Yrotation
                JOINT lRing2
                {
                  OFFSET 2.60934 -0.819778 -0.0198488
                  CHANNELS 3 Zrotation Xrotation Yrotation
                  End Site
                  {
                    OFFSET 2.33842 -0.294052 0.168128
                  }
                }
              }
              JOINT lPinky1
              {
                OFFSET 8.27202 -0.0477905 -0.4584
                CHANNELS 3 Zrotation Xrotation Yrotation
                JOINT lPinky2
                {
                  OFFSET 1.82734 -0.647385 -0.700984
                  CHANNELS 3 Zrotation Xrotation Yrotation
                  End Site
                  {
                    OFFSET 1.69225 -0.51767 -0.607171
                  }
                }
              }
            }
          }
        }
      }
    }
  }
  JOINT rButtock
  {
    OFFSET -8.77824 4.35084 1.2192
    CHANNELS 3 Zrotation Xrotation Yrotation
    JOINT rThigh
    {
      OFFSET 0 -1.70687 -2.19456
      CHANNELS 3 Zrotation Xrotation Yrotation
      JOINT rShin
      {
        OFFSET 0 -36.8199 0.73152
        CHANNELS 3 Zrotation Xrotation Yrotation
        JOINT rFoot
        {
          OFFSET 0.73152 -45.1104 -5.12064
          CHANNELS 3 Zrotation Xrotation Yrotation
          End Site
          {
            OFFSET -1.1221 -3.69964 12.103
          }
        }
      }
    }
  }
  JOINT lButtock
  {
    OFFSET 8.77824 4.35084 1.2192
    CHANNELS 3 Zrotation Xrotation Yrotation
    JOINT lThigh
    {
      OFFSET 0 -1.70687 -2.19456
      CHANNELS 3 Zrotation Xrotation Yrotation
      JOINT lShin
      {
        OFFSET 0 -36.8199 0.73152
        CHANNELS 3 Zrotation Xrotation Yrotation
        JOINT lFoot
        {
          OFFSET -0.73152 -45.1104 -5.12064
          CHANNELS 3 Zrotation Xrotation Yrotation
          End Site
          {
            OFFSET 1.1221 -3.69964 12.103
          }
        }
      }
    }
  }
}
MOTION
Frames:	4
Frame Time:	0.03333
0.7026825565844774 1.810380443930626 2.045466937124729 0.13443514704704285 -1.6200828552246094 -1.3425177335739136 1.3311245441436768 1.060895323753357 1.0293817520141602 -0.9126584529876709 1.365628719329834 0.10040656477212906 0.6327353715896606 0.5035820603370667 0.7479050755500793 0.7378352880477905 -0.35691037774086 -0.13262243568897247 -0.10740876942873001 -1.7237482070922852 -1.1862925291061401 -0.9581096172332764 0.6791988015174866 -1.5600125789642334 0.1899949014186859 0.47583577036857605 0.09186883270740509 1.6494299173355103 0.11793501675128937 0.34710803627967834 -1.27305269241333 0.6149917840957642 -0.3679569661617279 2.0198233127593994 -0.34139880537986755 0.5649593472480774 -0.7597749829292297 1.4265514612197876 -1.6668342351913452 -1.2202095985412598 -0.302592009305954 0.7588138580322266 -0.8598435521125793 1.2952837944030762 0.2874511182308197 -0.17790447175502777 1.2343872785568237 -0.31969255208969116 0.9396206140518188 -1.826090693473816 -0.26735788583755493 1.3276221752166748 -1.087469458580017 -0.053812380880117416 0.4496627151966095 -1.2472339868545532 -0.10921374708414078 0.5213183164596558 -0.8194423317909241 1.551129698753357 -1.5083990097045898 1.2625479698181152 -1.0841197967529297 -0.7890220284461975 -0.9273146986961365 0.4366929829120636 -0.5403825640678406 1.4696718454360962 0.42839518189430237 -1.713073492050171 0.7716929912567139 -0.054862841963768005 -0.4141766428947449 0.5224407315254211 -0.7886307239532471 -0.6741024255752563 -0.5651929974555969 -1.3867453336715698 -0.39085060358047485 1.264749526977539 1.3979302644729614 1.1989083290100098 1.3226754665374756 0.9030671715736389 -0.22980351746082306 0.3859265446662903 -0.05192114785313606 -0.19301317632198334 -0.8998348712921143 -0.7989302277565002 2.1417646408081055 -0.6942132115364075 1.3923029899597168 0.10678442567586899 0.15561287105083466 -0.4779709577560425 -0.39668720960617065 0.017940204590559006 1.5300146341323853 1.493354082107544 1.323215126991272 -1.271577000617981 1.4594708681106567 -0.34995532035827637 -1.3990681171417236 -1.4002563953399658 0.5645843148231506 -1.691798210144043 -0.577312707901001 1.0462291240692139 -0.1396464854478836 1.1061283349990845 -1.1047385931015015 -0.8648942112922668 -1.1790566444396973 0.8080427050590515 -1.585189938545227 -1.0935107469558716 0.3630889356136322 -1.3548165559768677 -1.123421549797058 -0.9302977323532104 -1.2390036582946777 -0.3525564968585968 0.9107746481895447 0.9971333146095276 -0.8244787454605103 -0.5352569818496704 0.4590170085430145 1.9744020700454712 -1.6726950407028198 -1.0210520029067993
1.469913823530078 1.9186832010746002 4.1646817699074745 0.34806594252586365 -1.5722931623458862 -1.5017911195755005 1.466140627861023 1.1547285318374634 0.7713360786437988 -0.8517369031906128 1.5406121015548706 -0.05288151651620865 0.6871244311332703 0.5802091360092163 0.6902716755867004 0.6441189646720886 -0.3450220227241516 -0.01009297277778387 -0.06772936880588531 -1.814176082611084 -1.3187105655670166 -0.886258065700531 0.6836546659469604 -1.5432982444763184 0.2776348292827606 0.4777688682079315 0.06036398932337761 1.7682546377182007 0.062158986926078796 0.32918938994407654 -1.158455729484558 0.6050946116447449 -0.33446675539016724 2.269981861114502 -0.5483390092849731 0.4646175503730774 -0.6974865794181824 1.5445048809051514 -1.8135335445404053 -1.159521222114563 -0.21027033030986786 0.680162250995636 -0.9478493332862854 1.119038701057434 0.13000328838825226 -0.2151133418083191 1.1590062379837036 -0.3901272714138031 0.9912090301513672 -2.007927656173706 -0.31309273838996887 1.4381519556045532 -1.0080150365829468 -0.12450940907001495 0.25648778676986694 -1.3241201639175415 -0.024067167192697525 0.4907436668872833 -0.7592552304267883 1.5767090320587158 -1.5778428316116333 1.215217113494873 -1.3767935037612915 -0.7541009187698364 -0.8413435220718384 0.4368101954460144 -0.4978129267692566 1.61531662940979 0.4521213471889496 -1.7473009824752808 0.8595058917999268 0.084147609770298 -0.49450525641441345 0.5951712727546692 -0.8798246383666992 -0.713011622428894 -0.511951744556427 -1.3594260215759277 -0.3395833671092987 1.1340349912643433 1.3789364099502563 1.197089672088623 1.3446184396743774 0.8758918642997742 -0.36681103706359863 0.37758514285087585 0.10532134771347046 -0.2327319085597992 -0.8530066013336182 -0.7582798600196838 2.3105628490448 -0.8047295808792114 1.3554341793060303 0.25921186804771423 0.06373746693134308 -0.5543509721755981 -0.3077962100505829 0.10919017344713211 1.368133783340454 1.5814927816390991 1.483550786972046 -1.4801294803619385 1.7139410972595215 -0.3078618347644806 -1.3294717073440552 -1.479956865310669 0.5221548080444336 -1.8744641542434692 -0.5352221727371216 1.2121728658676147 -0.1540001630783081 1.1361688375473022 -1.1035231351852417 -0.8799026012420654 -1.296224594116211 0.801314651966095 -1.4539337158203125 -1.0563939809799194 0.3286644220352173 -1.3457615375518799 -1.2752695083618164 -0.8659505248069763 -1.2809396982192993 -0.2672087550163269 0.9613871574401855 1.0276254415512085 -1.012017846107483 -0.5051851272583008 0.5588966608047485 2.0417134761810303 -2.004197359085083 -1.152089238166809
2.2459238301962614 1.98137816041708 6.319195590913296 0.4464373290538788 -1.573815941810608 -1.5724639892578125 1.5404781103134155 1.1976248025894165 0.5651059150695801 -0.8386938571929932 1.657069206237793 -0.11379696428775787 0.7376233339309692 0.6156015992164612 0.6321572065353394 0.5687582492828369 -0.34950751066207886 0.06247299537062645 -0.053545743227005005 -1.8673597574234009 -1.4101237058639526 -0.8630949258804321 0.6994094252586365 -1.5167820453643799 0.33635300397872925 0.5188714861869812 0.06431213021278381 1.8754031658172607 0.03182759881019592 0.33475548028945923 -1.0841648578643799 0.5973520278930664 -0.3088668882846832 2.4040415287017822 -0.6653245091438293 0.37654146552085876 -0.6187184453010559 1.610162615776062 -1.849162220954895 -1.1324739456176758 -0.13910087943077087 0.6205011606216431 -0.9784303307533264 1.0246809720993042 0.03889670968055725 -0.28000232577323914 1.1016871929168701 -0.4189232885837555 1.020176649093628 -2.1238534450531006 -0.3562840223312378 1.4795455932617188 -0.9603714942932129 -0.11030273139476776 0.19088540971279144 -1.3959228992462158 0.012198245152831078 0.4731426537036896 -0.6852146983146667 1.5671427249908447 -1.6314136981964111 1.1689059734344482 -1.5569863319396973 -0.7328343391418457 -0.8336953520774841 0.47463366389274597 -0.4745275378227234 1.6778545379638672 0.4409347176551819 -1.7945879697799683 0.9448474645614624 0.1989128738641739 -0.5465502142906189 0.6490854620933533 -0.910079300403595 -0.7376617193222046 -0.456783652305603 -1.3855841159820557 -0.31267049908638 1.1005704402923584 1.3888986110687256 1.2198560237884521 1.3448418378829956 0.85147625207901 -0.4319181740283966 0.35783693194389343 0.19401274621486664 -0.2655516564846039 -0.796964704990387 -0.7503529191017151 2.3321006298065186 -0.8404387831687927 1.2909178733825684 0.35288554430007935 0.02700910158455372 -0.5775570869445801 -0.2959456145763397 0.2028079777956009 1.2358143329620361 1.5913163423538208 1.5288848876953125 -1.5958770513534546 1.8365955352783203 -0.32011181116104126 -1.304607629776001 -1.5343862771987915 0.4697034955024719 -1.9888283014297485 -0.47384050488471985 1.305827021598816 -0.13876624405384064 1.1723889112472534 -1.059007167816162 -0.889923095703125 -1.3871479034423828 0.8253481984138489 -1.3518131971359253 -1.0368521213531494 0.295242041349411 -1.3170510530471802 -1.3779031038284302 -0.8217228055000305 -1.3109980821609497 -0.20936065912246704 1.006151556968689 1.031968355178833 -1.1093045473098755 -0.49086683988571167 0.6365975141525269 2.059619426727295 -2.194185495376587 -1.2561954259872437
3.0108990147709846 2.015127055346966 8.48230104893446 0.4843031167984009 -1.5956432819366455 -1.587934970855713 1.571163535118103 1.2115260362625122 0.4030486047267914 -0.8433380126953125 1.7331186532974243 -0.13435260951519012 0.7757484316825867 0.6437066197395325 0.58502197265625 0.5171324610710144 -0.35094183683395386 0.10618850588798523 -0.05942191556096077 -1.8903541564941406 -1.4741764068603516 -0.8680033087730408 0.7102743983268738 -1.4915506839752197 0.3621768653392792 0.5717859864234924 0.06720110774040222 1.9601783752441406 0.011851031333208084 0.34448668360710144 -1.0287493467330933 0.5992972254753113 -0.29320263862609863 2.466808557510376 -0.7381368279457092 0.31202587485313416 -0.5401135683059692 1.6481398344039917 -1.8431274890899658 -1.1186001300811768 -0.09014202654361725 0.5773841142654419 -0.979847252368927 0.9865301847457886 -0.01675671711564064 -0.3389244079589844 1.0617748498916626 -0.418364018201828 1.0433703660964966 -2.187506914138794 -0.3889982998371124 1.4915869235992432 -0.9424867630004883 -0.0665021762251854 0.18323597311973572 -1.4575175046920776 0.02092581056058407 0.4575975835323334 -0.6236936450004578 1.5480608940124512 -1.6821626424789429 1.1309922933578491 -1.6627424955368042 -0.7236460447311401 -0.847260594367981 0.5259085893630981 -0.46331357955932617 1.6867038011550903 0.415568470954895 -1.8511713743209839 1.0152508020401 0.28915712237358093 -0.5801223516464233 0.6942325234413147 -0.9210774302482605 -0.7356150150299072 -0.4192582666873932 -1.4346929788589478 -0.3056776523590088 1.102763295173645 1.4047602415084839 1.2533595561981201 1.3276056051254272 0.8192909955978394 -0.4617767930030823 0.34184667468070984 0.2397148460149765 -0.29117918014526367 -0.7558953762054443 -0.7571601271629333 2.302337646484375 -0.844205915927887 1.2227449417114258 0.4114171862602234 0.004340066574513912 -0.575355052947998 -0.3095480501651764 0.28435251116752625 1.1386642456054688 1.5757673978805542 1.5373121500015259 -1.6575490236282349 1.8928145170211792 -0.34616678953170776 -1.298827052116394 -1.5858304500579834 0.42609062790870667 -2.066427707672119 -0.4174640476703644 1.3539962768554688 -0.122299425303936 1.1970010995864868 -1.0161575078964233 -0.9030231237411499 -1.4529212713241577 0.8453202247619629 -1.2779372930526733 -1.0139700174331665 0.25731778144836426 -1.287948727607727 -1.447485089302063 -0.7877259850502014 -1.332337737083435 -0.16334055364131927 1.0428061485290527 1.0224491357803345 -1.1550865173339844 -0.47606053948402405 0.6955713629722595 2.061805009841919 -2.293901205062866 -1.3318824768066406
